<svg width="174" height="141" viewBox="0 0 174 141" fill="none" xmlns="http://www.w3.org/2000/svg">
<path d="M169.141 0.94165H106.711H4.85909C2.17602 0.94165 0 3.11767 0 5.80074V94.8381L85.4649 107.09L174 94.8381V5.80074C174 3.11767 171.824 0.94165 169.141 0.94165Z" fill="#4D4D4D"/>
<path d="M169.141 0.94165H106.711L39.9414 111.309H71.5204H102.484H169.141C171.824 111.309 174 109.133 174 106.446V94.8384V5.80074C174 3.11767 171.824 0.94165 169.141 0.94165Z" fill="#3B3B3B"/>
<path d="M102.484 108.896L106.128 139.019H67.876L71.5201 108.896H102.484Z" fill="#808080"/>
<path d="M104.902 128.883L102.484 108.896H71.5205L69.1025 128.883H104.902Z" fill="#616161"/>
<path d="M49.9044 94.8381H0V106.447C0 109.133 2.17602 111.309 4.85909 111.309H39.9415H71.5205H102.484H169.141C171.824 111.309 174 109.133 174 106.447V94.8381H49.9044Z" fill="#CCCCCC"/>
<path d="M49.9063 94.8381L39.9414 111.309H169.141C171.824 111.309 174 109.133 174 106.447V94.8385L49.9063 94.8381Z" fill="#ADADAD"/>
<path d="M119.729 140.905H54.2715C52.8639 140.905 51.7227 139.764 51.7227 138.357C51.7227 136.949 52.8639 135.808 54.2715 135.808H119.729C121.137 135.808 122.278 136.949 122.278 138.357C122.278 139.764 121.137 140.905 119.729 140.905Z" fill="#CCCCCC"/>
<g filter="url(#filter0_d)">
<path d="M51.667 66.2168C51.7253 68.8632 53.8843 70.9793 56.5313 70.9847H117.469C120.161 70.9847 122.344 68.8019 122.344 66.1097V32.5101L51.667 66.2168Z" fill="#FF3051"/>
<path d="M122.344 31.9846C122.344 29.2924 120.161 27.1096 117.469 27.1096H56.5312C53.8391 27.1096 51.6562 29.2924 51.6562 31.9846V66.1096C51.6562 66.1459 51.6658 66.1804 51.667 66.2167L122.344 32.5101V31.9846Z" fill="#FF4764"/>
<path d="M71.1563 57.5795H62.625V39.2982C62.625 38.6252 62.0793 38.0795 61.4063 38.0795C60.7332 38.0795 60.1875 38.6252 60.1875 39.2982V58.7982C60.1875 59.4713 60.7332 60.017 61.4063 60.017H71.1563C71.8293 60.017 72.375 59.4713 72.375 58.7982C72.375 58.1252 71.8293 57.5795 71.1563 57.5795Z" fill="#F1F2F2"/>
<path d="M112.594 40.5159C113.267 40.5159 113.813 39.9702 113.813 39.2971C113.813 38.6241 113.267 38.0784 112.594 38.0784H102.844C102.171 38.0784 101.625 38.6241 101.625 39.2971V58.7971C101.625 59.4702 102.171 60.0159 102.844 60.0159H112.594C113.267 60.0159 113.813 59.4702 113.813 58.7971C113.813 58.1241 113.267 57.5784 112.594 57.5784H104.063V50.2659H110.156C110.829 50.2659 111.375 49.7202 111.375 49.0471C111.375 48.3741 110.829 47.8284 110.156 47.8284H104.063V40.5159H112.594Z" fill="#F1F2F2"/>
<path d="M77.25 38.0784C76.5769 38.0784 76.0312 38.6241 76.0312 39.2971V58.7971C76.0312 59.4702 76.5769 60.0159 77.25 60.0159C77.923 60.0159 78.4687 59.4702 78.4687 58.7971V39.2971C78.4687 38.6241 77.923 38.0784 77.25 38.0784Z" fill="#F1F2F2"/>
<path d="M97.1785 38.1551C96.8756 38.0415 96.54 38.0528 96.2454 38.1867C95.9508 38.3206 95.7217 38.5664 95.6086 38.8693L89.5429 55.0469L84.5084 38.9317C84.3066 38.2884 83.6217 37.9314 82.979 38.1331C82.3357 38.3349 81.9786 39.0198 82.1804 39.6625L88.2741 59.1625C88.43 59.6594 88.8841 60.0016 89.4042 60.0159H89.4381C89.9463 60.0165 90.4016 59.7011 90.5801 59.225L97.8926 39.725C98.0063 39.4221 97.995 39.0865 97.8611 38.7919C97.7272 38.4973 97.4814 38.2682 97.1785 38.1551Z" fill="#F1F2F2"/>
</g>
<defs>
<filter id="filter0_d" x="49.957" y="27.1096" width="74.086" height="47.6133" filterUnits="userSpaceOnUse" color-interpolation-filters="sRGB">
<feFlood flood-opacity="0" result="BackgroundImageFix"/>
<feColorMatrix in="SourceAlpha" type="matrix" values="0 0 0 0 0 0 0 0 0 0 0 0 0 0 0 0 0 0 127 0"/>
<feOffset dy="2.03906"/>
<feGaussianBlur stdDeviation="0.849609"/>
<feColorMatrix type="matrix" values="0 0 0 0 0.975 0 0 0 0 0.962813 0 0 0 0 0.962813 0 0 0 0.14 0"/>
<feBlend mode="normal" in2="BackgroundImageFix" result="effect1_dropShadow"/>
<feBlend mode="normal" in="SourceGraphic" in2="effect1_dropShadow" result="shape"/>
</filter>
</defs>
</svg>
